<?xml version="1.0" encoding="utf-8"?>
<!-- Generator: Adobe Illustrator 16.0.3, SVG Export Plug-In . SVG Version: 6.00 Build 0)  -->
<!DOCTYPE svg PUBLIC "-//W3C//DTD SVG 1.1//EN" "http://www.w3.org/Graphics/SVG/1.1/DTD/svg11.dtd">
<svg version="1.1" id="레이어_1_xA0_이미지_1_"
	 xmlns="http://www.w3.org/2000/svg" xmlns:xlink="http://www.w3.org/1999/xlink" x="0px" y="0px" width="178px" height="48px"
	 viewBox="0 0 178 48" enable-background="new 0 0 178 48" xml:space="preserve">
<g>
	<g>
		<path fill="#D7C9B1" d="M42.299,1.918V26c0,0,0.188,8.698-5.84,13.717c0,0-4.964,4.03-10.485,6.591h-0.059
			c-5.717-2.462-10.392-6.591-10.392-6.591C9.497,34.698,9.59,26,9.59,26V1.918H42.299L42.299,1.918z"/>
		<path fill="#7C0019" d="M42.299,1.329H9V26c-0.003,0.36-0.025,9.03,6.148,14.169l-0.014-0.012
			c0.193,0.172,4.811,4.221,10.547,6.693l0.113,0.047h0.309l0.118-0.056c5.522-2.562,10.558-6.627,10.609-6.668
			c6.182-5.146,6.067-13.818,6.059-14.187V1.329H42.299 M41.709,2.507c0,1.122,0,23.493,0,23.493c0,0.006,0,0.022,0,0.053
			c0,0.729-0.13,8.634-5.627,13.211c-0.045,0.034-4.84,3.905-10.143,6.41c-5.465-2.406-9.979-6.359-10.025-6.399l-0.013-0.011
			c-5.658-4.711-5.723-12.947-5.723-13.25c0-0.004,0-22.385,0-23.506C11.295,2.507,40.596,2.507,41.709,2.507L41.709,2.507z"/>
		<polygon fill="#7C0019" points="42.17,14.868 9.59,14.868 9.59,1.918 42.17,1.918 42.17,14.868 		"/>
		<polygon fill="#D7C9B1" points="10.246,2.585 10.246,2.826 41.721,2.826 41.721,2.585 10.246,2.585 		"/>
		<polygon fill="#D7C9B1" points="10.246,9.324 10.246,9.565 41.721,9.565 41.721,9.324 10.246,9.324 		"/>
		<polygon fill="#D7C9B1" points="10.174,13.347 10.174,13.587 41.65,13.587 41.65,13.347 10.174,13.347 		"/>
		<path fill="#7C0019" d="M23.291,41.727h0.433c0.061,0,0.038-0.055,0.038-0.055c-0.176-0.779-0.084-1.389-0.05-1.571
			c0,0,0.017-0.054-0.045-0.054h-0.428c-0.058,0-0.037,0.046-0.037,0.046c0.146,0.598,0.089,1.355,0.052,1.574
			C23.253,41.667,23.227,41.727,23.291,41.727L23.291,41.727z"/>
		<path fill="#7C0019" d="M24.896,40c-0.69,0.066-0.647,0.875-0.647,0.875c0.042,0.73,0.8,0.869,0.8,0.869
			c-0.207,0.561-0.76,0.727-0.76,0.727c-0.131,0.051-0.035,0.089-0.035,0.089c0.166,0.055,0.406-0.042,0.406-0.042
			c1.013-0.454,1.039-1.516,1.039-1.516C25.72,39.921,24.896,40,24.896,40 M25.142,41.488c-0.33,0.009-0.409-0.505-0.409-0.505
			c-0.085-0.563,0.134-0.596,0.134-0.596c0.232-0.073,0.333,0.407,0.333,0.407C25.313,41.348,25.142,41.488,25.142,41.488
			L25.142,41.488z"/>
		<path fill="#7C0019" d="M27.45,40.654c0,0-0.092-0.671-0.721-0.663c0,0-0.622-0.017-0.651,0.846c0,0-0.024,0.909,0.763,0.87
			C26.842,41.707,27.612,41.659,27.45,40.654 M26.852,41.42c-0.297,0.108-0.33-0.499-0.33-0.499
			c-0.032-0.581,0.204-0.638,0.204-0.638c0.24-0.061,0.306,0.366,0.306,0.366C27.14,41.311,26.852,41.42,26.852,41.42L26.852,41.42z
			"/>
		<path fill="#7C0019" d="M27.634,41.94c0.665,0.131,0.84-0.34,0.84-0.34c0.212-0.668-0.622-0.699-0.622-0.699l0.134-0.86
			c0,0,0.837,0.04,1.062-0.071c0,0,0.051-0.035,0.022,0.091c0,0-0.046,0.285-0.32,0.307l-0.411,0.034l-0.04,0.242
			c0,0,0.711-0.016,0.699,0.753c0,0-0.026,0.595-0.722,0.741c0,0-0.326,0.071-0.701-0.082c0,0-0.057-0.027-0.026-0.072
			C27.55,41.983,27.577,41.929,27.634,41.94L27.634,41.94z"/>
		<path fill="#7C0019" d="M25.184,25.84c0.053-0.063,0.121-0.018,0.177,0c0.054,0.016,0.056,0.12,0.086,0.174
			c0.017,0.037,0.121,0.143,0.131,0.176c0.084,0.386,0,0.893-0.174,1.187c-0.049,0.091-0.129,0.138-0.186,0.141
			c-0.073,0.006-0.097-0.101-0.122-0.141c-0.111-0.155-0.027-0.525,0-0.698c0.029-0.224-0.145-0.582-0.034-0.745
			C25.063,25.933,25.182,25.84,25.184,25.84L25.184,25.84z"/>
		<path fill="#7C0019" d="M19.925,26.248c0.094-0.027,0.229,0.019,0.286,0l0.127-0.052c0.146-0.094,0.291-0.066,0.439-0.052
			c0.074,0.009,0.293,0.104,0.366,0.106c0.117,0.013,0.67,0.073,1.258,0.158c-0.005-0.002,0.313-0.042,0.233-0.131
			c0.05,0.058-0.009-0.048-0.129-0.089l-0.041-0.045c0.005-0.004-0.102-0.088,0.088-0.152c-0.072,0.021,0.125-0.028,0.163-0.07
			c0.077-0.082-0.035-0.169-0.035-0.169c-0.278-0.094-0.59,0.084-1.008,0.041c-0.206-0.018-0.498-0.135-0.788-0.088
			c-0.316,0.057-0.78,0.235-1.001,0.407C19.882,26.113,19.777,26.297,19.925,26.248L19.925,26.248z"/>
		<path fill="#7C0019" d="M23.444,23.97c0.285-0.018,0.298,0.277,0.304,0.248c-0.033,0.21-0.548,0.229-0.671,0.393
			c-0.362,0.471-0.211,0.919-1.064,0.968c0,0-0.172-0.04-0.105-0.11c0.054-0.058,0.26-0.112,0.336-0.158
			c0.11-0.063,0.101-0.24,0.174-0.351c0.015-0.027,0.11-0.061,0.134-0.085c0.24-0.323,0.267-0.651,0.688-0.843
			C23.258,24.021,23.413,23.977,23.444,23.97L23.444,23.97z"/>
		<path fill="#7C0019" d="M26.175,22.705c0.098-0.055,0.193,0,0.257,0.057c0.037,0.027,0.35,0.775,0.364,0.85
			c0.04,0.272,0.07,0.899-0.004,1.101c-0.104,0.281-0.364,0.496-0.307,0.994c0.03,0.292,0.159,0.521,0.282,0.774
			c0.015,0.042,0.143,0.291,0.15,0.344c0.046,0.268-0.099,0.613-0.122,0.83c-0.065,0.54,0.15,1.03,0.064,1.545
			c-0.037,0.222-0.108,0.333-0.23,0.471l-0.096,0.083c-0.026,0.053-0.075,0.07-0.125,0.108l-0.059,0.062
			c-0.092,0.021-0.101,0.074-0.138,0.079c-0.231,0.051-0.279-0.084-0.264-0.053c-0.234-0.66,0.159-1.432-0.042-2.068
			c-0.046-0.147-0.22-0.293-0.243-0.449c-0.08-0.571,0.455-0.873,0.447-1.257c0-0.273-0.36-0.63-0.442-0.899
			c-0.102-0.317-0.169-0.923-0.03-1.317c0.033-0.097,0.157-0.258,0.19-0.386c0.065-0.247,0.167-0.45,0.202-0.613
			c0.013-0.051,0.044-0.122,0.07-0.17C26.111,22.773,26.159,22.714,26.175,22.705L26.175,22.705z"/>
		<path fill="#7C0019" d="M32.993,21.341c0.387-0.045,0.56,0.107,0.379,0.437l-0.075,0.071c-0.031,0.012-0.134,0.146-0.156,0.165
			c-0.186,0.137-0.362,0.222-0.504,0.396c-0.049,0.06-0.088,0.208-0.149,0.258c-0.097,0.069-0.465,0.232-0.56,0.249
			c-0.467,0.075-1.103-0.392-1.172-0.66c-0.061-0.232,0-0.457,0.1-0.509c0.157-0.08,0.573-0.038,0.715-0.053
			c0.36-0.027,0.586-0.008,0.862-0.103C32.601,21.538,32.792,21.364,32.993,21.341L32.993,21.341z"/>
		<path fill="#7C0019" d="M31.003,21.186c0,0,0.219,0.092,0.415,0.043c0.138-0.035,0.396-0.152,0.525-0.176
			c0.079-0.018,0.189,0.022,0.266,0c0.213-0.064,0.606-0.481,0.136-0.527c-0.171-0.016-0.68,0.176-0.838,0.22
			c-0.16,0.041-0.258,0.067-0.391,0.137c-0.035,0.02-0.217,0.169-0.195,0.144C30.92,21.027,30.8,21.128,31.003,21.186L31.003,21.186
			z"/>
		<path fill="#7C0019" d="M27.642,21.975c-0.138-0.02-0.138-0.25-0.483-0.176c-0.241,0.052-0.307,0.405-0.658,0.396l-0.175-0.086
			c-0.153-0.036-0.262,0.018-0.396-0.048c-0.618-0.29,0.479-1.773,0.834-1.754c0.019,0,0.201,0.067,0.223,0.087
			c0.11,0.096,0.11,0.51,0.215,0.659c0.079,0.106,0.203,0.097,0.31,0.176c0.111,0.084,0.323,0.377,0.348,0.529
			C27.86,21.758,27.918,22.012,27.642,21.975L27.642,21.975z"/>
		<path fill="#7C0019" d="M33.353,33.964C33.36,33.955,33.36,33.954,33.353,33.964L33.353,33.964z"/>
		<path fill="#7C0019" d="M38.278,20.917C38.278,20.91,38.278,20.908,38.278,20.917L38.278,20.917z"/>
		<rect x="33.351" y="33.964" fill="#7C0019" width="0.002" height="0"/>
		<rect x="38.279" y="20.918" fill="#7C0019" width="0.003" height="0.008"/>
		<path fill="#7C0019" d="M32.738,20.499c0.003-0.008,0.007-0.016,0.01-0.022C32.737,20.5,32.734,20.503,32.738,20.499
			L32.738,20.499z"/>
		<path fill="#7C0019" d="M30.068,27.993c-0.001-0.001-0.006-0.001-0.009-0.003C30.068,27.996,30.07,27.996,30.068,27.993
			L30.068,27.993z"/>
		<path fill="#7C0019" d="M24.979,22.085c-0.24,0.134-0.761,0.339-0.87,0.571c-0.062,0.121-0.062,0.227-0.111,0.373
			c-0.006,0.017-0.071,0.042-0.091,0.087c-0.255,0-0.479-0.016-0.7,0.043c-0.173,0.049-0.421,0.231-0.614,0.266
			c-0.39,0.067-0.689-0.105-1.054-0.045c-0.163,0.029-0.267,0.197-0.401,0.265c-0.114,0.056-0.161,0.056-0.25,0.137l-0.081,0.093
			c-0.013,0.036-0.053,0.125-0.078,0.168c-0.079,0.119-0.111,0.24-0.13,0.369c-0.019,0.125-0.092,0.424-0.157,0.548
			c-0.031,0.06-0.197,0.194-0.221,0.249c-0.012,0.038-0.048,0.075,0,0.132c-0.056-0.063-0.045,0.061,0.271,0.077
			c0.348,0.007,1.105-0.225,1.105-0.225l0.364-0.196c0.07-0.055,0.353-0.268,0.414-0.341c0.265-0.329,0.974-1.526,1.524-1.213
			l0.099,0.07c0.131,0.222-0.034,0.854-0.133,0.998l-0.124,0.148c-0.1,0.032-0.168,0.287-0.182,0.405
			c-0.024,0.189,0.031,0.359,0.045,0.465c0.029,0.228,0.053,0.515-0.088,0.796c-0.03,0.054-0.11,0.151-0.089,0.303
			c0.026,0.173,0.271,0.299,0.306,0.441c0.021,0.072,0.084,0.083,0,0.221c-0.046,0.073-0.247,0.199-0.306,0.263
			c-0.079,0.08-0.01,0.208,0.042,0.258c0.152,0.137,0.278,0.153,0.396,0.312c0.168,0.216,0.158,0.403,0.528,0.439
			c0.291,0.027,0.701,0.042,0.528-0.354l-0.088-0.147c-0.103-0.259-0.283-0.487-0.309-0.771c-0.034-0.359,0.256-0.544,0.134-0.834
			c-0.098-0.223-0.536-0.198-0.572-0.487c-0.019-0.162,0.146-0.505,0.177-0.659c0.034-0.211-0.022-0.345,0.045-0.525
			c0.043-0.129,0.235-0.275,0.257-0.437c0.042-0.29-0.183-0.474-0.085-0.79c0.048-0.164,0.304-0.145,0.397-0.265
			c0.122-0.164,0.056-0.388,0.129-0.616c0.008-0.026,0.07-0.163,0.083-0.188c-0.007-0.01,0.05-0.293,0.05-0.293
			C25.104,22.018,24.993,22.09,24.979,22.085 M22.199,24.401c-0.246,0.057-0.269-0.468-0.859-0.264
			c-0.032,0.012-0.197,0.164-0.211,0.188c-0.069,0.156-0.033,0.556-0.11,0.594c0,0-0.23,0.057-0.185-0.234
			c0.07-0.461,0.16-0.548,0.393-0.742c0.031-0.025,0.119-0.09,0.164-0.1c0.278-0.065,0.793,0.042,0.886,0.184
			C22.356,24.145,22.188,24.405,22.199,24.401L22.199,24.401z"/>
		<path fill="#7C0019" d="M38.28,20.925c-0.042-0.214-0.624-0.199-0.86-0.485c-0.088-0.115-0.022-0.177,0-0.263
			c0.067-0.25,0.6-0.102,0.724-0.324c0.05-0.094,0.068-0.37,0.036-0.407c-0.334-0.41-1.039-0.215-1.537-0.413
			c-0.24-0.099-0.539-0.299-0.791-0.393c-0.316-0.122-0.561-0.139-0.877-0.265c-0.073-0.031-0.213-0.134-0.289-0.165
			c-0.353-0.141-0.631-0.17-0.982-0.319c-0.042-0.016-0.148-0.077-0.194-0.096c-0.141-0.06-0.185-0.069-0.334-0.124
			c-0.543-0.196-1.234-0.369-2.021-0.32c-0.345,0.019-0.742-0.044-1.272,0.106c-0.185,0.046-0.442,0.205-0.613,0.259
			c-0.122,0.036-0.227,0.058-0.336,0.105c-0.153,0.062-0.289,0.152-0.499,0.201c-0.603,0.135-1.409-0.013-2.02,0.089
			c-0.531,0.085-0.837,0.42-1.273,0.571c-0.133,0.044-0.188,0.03-0.319,0.077c-0.077,0.027-0.257,0.075-0.319,0.109
			c-0.182,0.093-0.3,0.121-0.505,0.208c-0.103,0.046-0.224,0.14-0.325,0.187c-0.147,0.073-0.156,0.094-0.277,0.182l-0.099,0.072
			c0,0-0.215,0.188-0.241,0.22c-0.085,0.09-0.167,0.213-0.241,0.306c-0.223,0.261-0.558,0.586-0.835,0.789
			c-0.102,0.073-0.172,0.057-0.261,0.134c-0.105,0.08-0.197,0.166-0.297,0.241c-0.231,0.165-0.46,0.274-0.714,0.414l-0.163,0.109
			c-0.215,0.14-0.206,0.198-0.428,0.338c-0.146,0.099-0.208,0.249-0.343,0.363c-0.088,0.067-0.189,0.282-0.249,0.373
			c-0.276,0.404-0.379,1-0.576,1.5c-0.059,0.143-0.538,0.834-0.657,0.877l-0.088,0.084c-0.068,0.058-0.068,0.075-0.131,0.136
			c-0.142,0.126-0.285,0.197-0.394,0.353c-0.089,0.119-0.141,0.259-0.223,0.392c-0.126,0.206-0.333,0.435-0.437,0.66
			c-0.043,0.084-0.073,0.166-0.103,0.247c-0.011,0.011-0.019,0.025-0.022,0.025c-0.054,0.068-0.146,0.352-0.146,0.352
			c-0.098,0.226-0.33,0.353-0.636,0.789c-0.359,0.026-1.594-0.286-2.433-0.685c0.188,0.209,1.13,0.843,2.233,0.963
			c-0.073,0.107-0.079,0.219-0.211,0.254c-0.443,0.108-1.209-0.134-2.241-0.493c0.06,0.144,0.968,0.677,2.31,0.758
			c-0.2,0.233-2.042,0.176-3.481-0.218c-0.056,0.151,1.8,0.564,2.819,0.55c-0.174,0.09-0.632,0.193-0.927,0.3
			c-0.464-0.052-1.113-0.133-1.238-0.181c0.029,0.095,0.488,0.22,0.868,0.308c-0.365,0.131-0.907,0.206-1.117,0.25
			c0.153,0.04,0.74-0.055,1.359-0.204c0.541,0.105,1.369,0.213,1.824,0.191c-0.114,0.058-0.543,0.333-0.88,0.531
			c-0.866,0.081-1.808,0.154-2.01,0.18c0.114,0.017,0.874,0.029,1.681,0.008c-0.494,0.291-1.02,0.592-1.275,0.707
			c0.376-0.095,1.045-0.352,1.73-0.719c0.68-0.025,1.317-0.081,1.582-0.176c-0.092,0.198-0.64,1.146-1.152,1.365
			c0.221-0.036,0.93-0.236,1.359-1.311c0.153,0.066,0.326,0.104,0.528,0.117c0.113,0.17,0.38,0.607,0.888,0.633
			c0.104,0.294,1.043,1.828,2.364,1.229c-0.381-0.207-0.612-0.423-0.8-1.033c0.586-0.038,2.138,0.813,2.605,2.652
			c-0.368-0.124-0.827-0.337-0.876-0.521c-0.101,0.426-0.167,0.974,0.774,1.922c0.018,0.202,0.015,0.446,0.058,0.675
			c0.156,0.163,0.335,0.284,0.5,0.425c0.013,0.266-0.025,0.634,0.676,0.838c0.238,0.198,1.004,0.408,1.115,0.539
			c0.229,0.074,0.567,0.088,0.814,0.074c0,0,0.333-0.057,0.421-0.185c0.166-0.009,0.392-0.015,1.408-1.098
			c0.213-0.255,0-1.656,0.051-1.995c0.101-0.248,0.145-0.476,0.28-0.779c0,0,0.139-0.301,0.398-0.421
			c0.018-0.009,0.033-0.009,0.054-0.015c0.585-0.132,1.349,0.416,1.71,0.569c0.13,0.055,0.199,0.025,0.306,0.09
			c0.051,0.026,0.124,0.146,0.177,0.177c0.129,0.072,0.253,0.052,0.397,0.129c0.21,0.117,0.636,0.733,1.007,0.662
			c0.116-0.027,0.207-0.29,0.307-0.355c0.173-0.106,0.415-0.096,0.57-0.216c0.177-0.141,0.104-0.297,0.131-0.486
			c0-0.008,0.083-0.098,0.09-0.134c0.086-0.009,0.277-0.001,0.396-0.039c0.015-0.007,0.065-0.063,0.086-0.087
			c0.076-0.079,0.02-0.162,0-0.228c-0.026-0.069-0.206-0.152-0.262-0.214c-0.132-0.131-0.357-0.322-0.442-0.482
			c-0.04-0.08,0.011-0.097-0.045-0.18c-0.058-0.092-0.212-0.187-0.258-0.304c-0.169-0.376-0.102-1.216-0.177-1.334
			c-0.069-0.112-0.155-0.098-0.224-0.203c-0.146-0.232,0.035-0.977,0.047-1.272c0.013-0.237-0.22-0.09-0.22-0.09
			c-0.192,0.474-0.171,0.684-0.218,1.362c-0.008,0.059-0.089,0.421-0.089,0.484c-0.002,0.237,0.136,0.639,0.043,0.922
			c-0.031,0.092-0.223,0.27-0.483,0.264c-0.098,0-0.59-0.128-0.701-0.176c-0.021-0.01-0.125-0.129-0.133-0.134
			c-0.245-0.193-0.296-0.012-0.306,0.085c-0.009,0.102,0.033,0.121,0.053,0.178c0.009,0.057,0.108,0.267,0.098,0.284
			c-0.004,0.021-0.089,0.252-0.546-0.018c-0.344-0.208-0.684-0.781-0.701-0.881c-0.048-0.219,0.02-0.385,0.063-0.461
			c0.172-0.155,0.375,0.06,0.547,0.152c0.042,0.023,0.149,0.098,0.202,0.107c0.101,0.018,0.262-0.018,0.285-0.018
			c0.666-0.039,1.356,0.201,1.474-0.245c0.074-0.281-0.202-0.433-0.25-0.549c-0.063-0.142-0.03-0.151-0.066-0.309
			c-0.005-0.012-0.052-0.113-0.062-0.127c-0.069-0.117-0.019-0.219-0.086-0.35c-0.071-0.144-0.268-0.229-0.351-0.353
			c-0.113-0.163-0.113-0.365-0.266-0.484c-0.225-0.184-1.125-0.451-1.229-0.66c-0.17-0.332,0.04-0.942-0.043-1.358
			c-0.045-0.244-0.124-0.377-0.273-0.527c-0.058-0.06-0.085-0.147-0.064-0.226c0.039-0.146,0.117-0.106,0.161-0.434
			c0.028-0.18-0.017-0.383,0-0.569c0.001-0.031,0.087-0.319,0.092-0.352c0.04-0.49-0.024-1.003-0.132-1.358
			c-0.051-0.173-0.212-0.321-0.265-0.485c-0.046-0.138,0.009-0.217-0.046-0.354c-0.043-0.12-0.197-0.204-0.258-0.303
			c-0.119-0.175-0.083-0.472-0.266-0.573c-0.134-0.074-0.182,0.028-0.173,0c-0.044,0.161-0.035,0.318,0.042,0.525
			c0.033,0.092,0.197,0.221,0.224,0.309c0.034,0.162-0.026,0.359,0,0.528l0.084,0.177c0.068,0.44-0.172,1.025-0.35,1.271
			c-0.125,0.163-0.503,0.371-0.526,0.615c-0.019,0.151,0.043,0.156,0.082,0.22c0.057,0.081,0.239,0.186,0.266,0.263
			c0.02,0.057,0.043,0.046,0.065,0.104l0.022,0.119c0.03,0.307-0.37,0.376-0.175,0.744c0.055,0.107,0.243,0.107,0.348,0.174
			c0.2,0.127,0.579,0.482,0.615,0.787c0.017,0.134,0,0.841-0.04,0.925c-0.091,0.196-0.584,0.273-0.528,0.66
			c0.062,0.422,1.176,0.303,1.49,0.525c0.149,0.104,0.179,0.329,0.225,0.531c0.025,0.108-0.084,0.146-0.133,0.17
			c-0.118,0.068-0.202,0.016-0.352,0.047c-0.362,0.074-0.94,0.237-1.092,0.528c-0.191,0.335,0.034,0.796-0.046,1.182
			c-0.081,0.349-0.343,0.774-0.532,1.057c-0.115,0.172-0.263,0.341-0.318,0.583c-0.129,0.518-0.039,1.129-0.077,1.737l-0.007,0.006
			c0,0,0.022,0.314-0.191,0.545c-0.241,0.264-1.075,1.046-1.668,1.046c-0.22-0.007-0.31-0.079-0.55-0.253
			c-0.151-0.014-0.499-0.097-0.7-0.308c-0.063-0.11-0.718-0.775-0.306-0.964c0.388-0.179,1.014,0.21,1.304,0.397
			c0.118,0,0.964,0.042,1.864-1.138c-0.043-0.617-0.093-1.408-0.161-1.552c-0.093-0.303-0.605-0.837-0.714-1.157
			c-0.068-0.261-0.189-0.771-0.111-1.124c-0.034-0.394-0.284-0.48-0.386-0.8c-0.029-0.08-0.063-0.144-0.08-0.169
			c-0.031-0.115-0.053-0.219-0.123-0.324c-0.157-0.238-0.309-0.29-0.452-0.523c-0.149-0.242-0.123-0.544-0.353-0.703
			c-0.126-0.084-0.296-0.093-0.438-0.174c-0.103-0.062-0.232-0.211-0.351-0.264c-0.138-0.062-0.177-0.079-0.318-0.142
			c-0.069-0.033-0.193-0.089-0.253-0.121c-0.062-0.035-0.124-0.004-0.176-0.047c-0.169-0.143-0.048-0.273-0.132-0.522
			c-0.007-0.031-0.074-0.032-0.089-0.089c-0.07-0.019-0.193-0.13-0.288-0.063c-0.132,0.096-0.168,0.068-0.25,0.269
			c-0.047,0.133-0.137,0.522-0.226,0.618c-0.079,0.094-0.18,0.224-0.304,0.313c-0.116,0.06-0.218,0.054-0.218,0.054l-0.329,0.047
			l-0.164,0.252c0,0-0.179-0.024-0.273-0.024c-0.026,0.063-0.243,0.228-0.311,0.286c-0.279,0.164-0.449,0.048-0.468-0.012
			c-0.014-0.052-0.102-0.162,0.087-0.274c0.644-0.18,1.433-1.042,1.499-1.228c-0.083,0.125-1.416,0.86-1.661,0.959
			c0.265-0.628,1.897-1.547,1.996-1.656c-0.417,0.063-1.808,0.904-2.05,1.276c-0.23,0.374-0.503,0.27-0.759,0.258
			c-0.25-0.008-0.229,0.261-0.239,0.424c-0.004,0.16-0.127,0.486-0.023,0.545c0.17,0.146,0.62-0.448,0.763-0.128
			c0.078,0.356-0.846,0.341-0.838,0.63c-0.044,0.151,0.853,0.203,1.018,0.365c-0.288,0.212-0.994,0.278-1.203,0.289
			c-0.131,0.011-0.249,0.006-0.316-0.005c-0.117-0.021-0.27-0.127-0.404-0.347c-0.256-0.464,0.175-0.783,0.183-0.902
			c0.01-0.123-0.049-0.057-0.057-0.253c-0.007-0.194,0.211-0.228,0.268-0.269c0.062-0.043-0.017-0.096-0.003-0.285
			c0.114-0.427,0.811-0.92,0.633-1.057c-0.162-0.086-0.5,0.286-0.63,0.457c-0.479,0.616-1.038,0.423-1.228,0.431
			c-0.422,0.023-0.347-0.439-0.053-0.406c0.34-0.07,0.315-0.542,0.558-0.493c0.078,0.343-0.304,0.391-0.125,0.469
			c0.243,0.096,0.267-0.224,0.343-0.356c0.073-0.136,0.416-0.429,0.376-0.503c-0.099-0.034-0.351,0.146-0.465,0.234
			c-0.279-0.694,0.421-1.222,0.456-1.428c0.23-0.363,1.515-0.827,1.538-1.378l0.036-0.031c0,0,0.023-0.014,0.062,0.052
			c0,0,0,0,0.003,0c0.009,0.031,0.015,0.068,0.025,0.105c0.003,0.044-0.002,0.085-0.002,0.085l0.006-0.054
			c0.01,0.087,0.006,0.161,0.01,0.144v0.082c0.012,0.051,0.077,0.076,0.087,0.081c0.027-0.005,0.098-0.027,0.165-0.104
			c0.01-0.012,0.085-0.083,0.085-0.1c0.124-0.091,0.146-0.104,0.232-0.226c0.221-0.321-0.204-0.792-0.086-1.227
			c0.082-0.288,0.35-0.628,0.35-0.628c0.073-0.164-0.042-0.164-0.042-0.164c-0.169-0.029-0.288,0.151-0.263,0.128
			c-0.217,0.204-0.282,0.303-0.44,0.576c0,0-0.132,0.12-0.17-0.045c-0.077-0.271,0.232-0.807,0.329-0.874
			c0.181-0.124,0.364-0.178,0.589-0.27c0.114-0.048,0.284-0.23,0.396-0.261c0.055-0.02,0.117-0.031,0.174,0
			c0,0,0.085,0.062,0.045,0.261c0,0-0.087,0.237-0.056,0.324c0.019,0.06,0.011,0.116,0.144,0.116
			c0.316,0.006,1.02-0.068,1.227-0.179c0.046-0.019,0.093-0.088,0.134-0.128c0.065-0.066,0.049-0.164,0-0.174l-0.134-0.044
			c0.103-0.016-0.595-0.021-0.482-0.042c-0.123,0.021,0.165-0.324,0.13-0.488c-0.014-0.078-0.15-0.11-0.176-0.172
			c-0.014-0.039-0.087-0.097,0-0.133l0.102-0.042c0.034-0.025,0.071-0.066,0.119-0.087c0.221-0.103,0.617-0.052,0.79,0
			c0.019,0.009,0.302,0.087,0.396,0.351c0.023,0.074,0.043,0.157,0.086,0.221c0.133,0.182,0.519,0.248,0.746,0.032
			c0.046-0.042,0.101-0.145,0.135-0.206c0.225-0.517-0.109-0.869-0.531-1.012c-0.169-0.061-0.446-0.078-0.657-0.133
			c-0.15-0.042-0.061-0.168-0.018-0.206l0.064-0.057c0.084-0.124,0.345-0.233,0.44-0.263c0.232-0.087,0.46-0.176,0.79-0.041
			c0.049,0.017,0.177,0.118,0.214,0.127c0.25,0.063,0.344,0.08,0.575-0.04c0.093-0.044,0.079-0.057,0.088-0.085
			c0.082-0.234-0.082-0.392-0.077-0.365c-0.049-0.317,0.854,0.073,0.995-0.125c0.133-0.181,0.046-0.525,0.221-0.657
			c0.02-0.011,0.123-0.084,0.132-0.087c0.168-0.035,0.315,0.034,0.449,0.087l0.143,0.067c0.285,0.119,0.531,0.182,0.685,0.414
			c0.097,0.154,0.079,0.375,0.173,0.53c0.04,0.066,0.134,0.109,0.182,0.176c0.04,0.048,0.118,0.08,0.17,0.11
			c0.082,0.051,0.113,0.072,0.218,0.106c0.078,0.031,0.19,0.148,0.265,0.178c0.267,0.109,0.588,0.094,0.878,0.087
			c0.172-0.007,0.274,0.094,0.437,0.044c0.084-0.028,0.06-0.176,0.007-0.239c-0.104-0.134-0.184-0.102-0.357-0.2
			c-0.068-0.042-0.153-0.177-0.221-0.217c-0.2-0.131-0.491-0.149-0.612-0.353c-0.016-0.032-0.039-0.091-0.042-0.128l-0.049-0.094
			c-0.242-0.491-0.32-0.783-0.086-0.876c0.146-0.055,0.463-0.024,0.618-0.087c0.036-0.019,0.103-0.119,0.129-0.132
			c0.349-0.166,1.004-0.359,1.363-0.174c0.109,0.051,0,0.329,0.042,0.438c0.022,0.047,0.103,0.129,0.194,0.157
			c0.754,0.202,1.506,0.169,2.06,0.43c0.33,0.156,0.582,0.399,0.879,0.656c0.254,0.228-0.048,0.483,0.214,0.56
			c-0.179,0.024-0.331,0.044-0.363-0.049c-0.009-0.023-0.062-0.106-0.088-0.129c-0.196-0.188-0.426-0.477-0.7-0.57
			c-0.142-0.052-0.204-0.008-0.354-0.046l-0.177-0.06c-0.19-0.053-0.205-0.035-0.392-0.074c-0.083-0.016-0.271-0.118-0.354-0.126
			c-0.373-0.056-0.582,0.094-0.922,0c-0.158-0.046-0.36-0.296-0.487-0.363c-0.159-0.089-0.304-0.12-0.48-0.177
			c-0.072-0.019-0.108-0.019-0.161,0.007c-0.098,0.057-0.065,0.144-0.015,0.217c0.029,0.038,0.054,0.104,0.088,0.125
			c0.124,0.09,0.371,0.09,0.439,0.219c0.194,0.383-0.09,0.517-0.132,0.631c-0.02,0.069-0.074,0.124,0,0.217
			c0.042,0.049,0.129,0.111,0.178,0.129c0.178,0.076,0.318,0.047,0.484,0.134c0.118,0.062,0.242,0.275,0.394,0.309
			c0.353,0.076,0.435-0.185,0.613-0.223c0.255-0.058,0.411,0.077,0.704,0c0.096-0.026,0.15-0.141,0.218-0.173
			c0.168-0.089,0.335-0.102,0.44-0.047c0,0,0.113,0.055-0.045,0.134c-0.091,0.05-0.168,0.05-0.262,0.097
			c-0.064,0.034-0.121,0.124-0.13,0.138c-0.03,0.061-0.052,0.153-0.049,0.16c0.028,0.049,0.065,0.076,0.089,0.089
			c0.306,0.105,0.618-0.092,0.881-0.132c0.194-0.031,0.737,0,0.894,0.119c0,0,0.146,0.03,0.052,0.293
			c-0.059,0.159-0.309,0.274-0.402,0.408c-0.056,0.076-0.117,0.22-0.174,0.295c-0.093,0.119-0.109,0.115-0.203,0.226l-0.064,0.093
			c-0.038,0.114-0.485,0.493-0.569,0.619c-0.05,0.076-0.074,0.155-0.126,0.237c-0.081,0.114-0.14,0.133-0.181,0.203
			c-0.128,0.186-0.38,0.562-0.589,0.655c-0.093,0.04-0.223-0.003-0.354-0.029c-0.088-0.024-0.184-0.186-0.26-0.222
			c-0.307-0.14-0.648-0.1-0.919-0.263c-0.135-0.081-0.259-0.317-0.356-0.439c-0.063-0.083-0.121-0.229-0.218-0.267
			c-0.158-0.055-0.54-0.004-0.614,0.133c-0.146,0.275,0.233,0.985,0.265,1.275c0.023,0.249-0.091,0.361,0,0.568
			c0.043,0.106,0.207,0.135,0.261,0.22c0.238,0.375,0.03,0.904,0.088,1.404c0.021,0.156,0.114,0.35,0.086,0.573
			c-0.037,0.351-0.488,0.653-0.306,1.185c0.008,0.022,0.093,0.084,0.099,0.091c0.069,0.034,0.179,0.02,0.253-0.003
			c0.146-0.051,0.289-0.343,0.441-0.438c0.015-0.018,0.065-0.043,0.093-0.043c0.017-0.03,0.058-0.032,0.082-0.043
			c0.065-0.05,0.09-0.051,0.129-0.133c0.061-0.143,0.041-0.282,0.087-0.485c0.045-0.168,0.201-0.466,0.221-0.659
			c0.054-0.537-0.336-1.589-0.056-1.762c0.106-0.066,0.213-0.193,0.397-0.222c0.082-0.02,0.347,0.063,0.46,0.06
			c-0.001,0.002-0.002,0.004-0.002,0.004c-0.143,0.336,0.384,1.215,0.343,1.699c-0.103,1.18-0.874,1.832-1.54,2.462
			c-0.077,0.076-0.011,0.16,0.045,0.22c0.132,0.126,0.453,0.07,0.619,0.043c0.241-0.05,0.349-0.157,0.525-0.219
			c0.065-0.026,0.146,0.016,0.218,0c0.181-0.049,0.336-0.295,0.439-0.444c0,0,0.215-0.23,0.26,0.075l0.005,0.017
			c0,0.286-0.05,0.599,0,0.876c0.051,0.33,0.653,1.319,0.966,1.364c0.73,0.107-0.018-0.813-0.048-0.878
			c-0.119-0.28-0.236-0.775-0.219-1.142c0.004-0.135,0.116-0.405,0.131-0.53c0.008-0.063-0.025-0.208,0-0.26
			c0.058-0.117,0.445-0.155,0.53-0.31c0.021-0.044-0.012-0.123,0-0.174c0.017-0.104,0.094-0.301,0.176-0.392
			c0.051-0.066,0.127-0.104,0.218,0c0.076,0.083,0.096,0.281,0.221,0.422l0.108,0.118c0.129,0.084,0.34-0.027,0.285-0.015
			c0.135-0.038,0.119-0.176,0.177-0.224c0.009-0.008,0.085-0.041,0.085-0.041c0.317-0.327-0.388-0.622-0.395-0.925
			c-0.006-0.337,0.075-0.726-0.042-1.097c-0.029-0.093-0.201-0.224-0.221-0.307c-0.048-0.212,0.063-0.436,0.088-0.568
			c0.048-0.281-0.046-0.713,0.045-0.838c0.053-0.067,0.137-0.118,0.306-0.088c0.111,0.021,0.186,0.203,0.264,0.264
			c0.287,0.231,0.621,0.36,1.099,0.306c0.059-0.002,0.108-0.091,0.119-0.116c0.03-0.087,0.024-0.2-0.031-0.276
			c-0.173-0.232-0.842-0.41-0.878-0.524c-0.027-0.086-0.132-0.201-0.015-0.26c-0.064,0.037,0.411-0.013,0.583-0.05
			c0.225-0.049,0.24-0.271,0.395-0.35c0.218-0.114,0.54-0.014,0.662-0.218c0.072-0.133,0.015-0.321,0.085-0.442
			c0.087-0.155,0.348-0.187,0.482-0.309C38.307,21.104,38.288,20.968,38.28,20.925 M20.631,31.192
			c-0.086-0.095-0.014-0.282,0.146-0.36c0.293-0.14,0.414,0.021,0.478,0.098c0.285,0.441,0.654,1.015,0.927,1.242
			C21.929,32.196,20.985,31.907,20.631,31.192 M23.046,35.634c-0.153,0-1.13-0.824-0.983-1.335c0.29,0.214,0.939,0.667,1.022,0.658
			C23.172,35.009,23.241,35.575,23.046,35.634 M24.183,35.635c-0.128-0.111-1.076-1.112-0.838-1.576
			c0.259,0.261,0.983,0.927,1.242,0.991C24.66,35.24,24.648,35.764,24.183,35.635 M24.285,31.813
			c0.166,0.249,0.394,0.395,0.381,0.93c-0.016,0.131,0.026,0.157,0.137,0.146c0.099-0.028,0.045-0.645,0.344-0.605
			c0.254,0.037,0.083,0.391,0.208,0.788c0.046,0.143,0.334,0.65,0.258,1.523c-0.008,0.225-0.437,0.519-0.681,0.347
			c-0.201-0.122-0.201-0.271-0.315-1.192c-0.049-0.545-0.713-0.732-0.994-0.98c-0.282-0.207-0.122-0.31-0.173-0.688
			c-0.162-0.547-0.799-0.802-0.585-1.166c0.066-0.09,0.13-0.176,0.332-0.099C23.207,31.088,23.853,31.297,24.285,31.813
			 M19.761,30.089c-0.016,0.009-0.019,0.011,0.006-0.002C19.766,30.087,19.763,30.088,19.761,30.089
			c0.065-0.028,0.349-0.162,0.424-0.189c0.3-0.106,0.459,0.054,0.735-0.1c0.065-0.039,0.138-0.146,0.198-0.194
			c0.051-0.047,0.146-0.041,0.208-0.085c0.153-0.103,0.438-0.431,0.635-0.466c0.113-0.021,0.112,0.008,0.17,0.014
			c0,0.012,0.083-0.017,0.063,0.151c-0.053,0.325,0.711-0.004,1.213,0.115c0.341,0.083,0.673,0.197,0.585,0.418
			c0.011-0.024-0.1,0.066-0.126,0.083c-0.235,0.171-0.418-0.017-0.537-0.032c-0.206-0.024-0.351,0.038-0.561,0.012
			c0-0.003-0.252-0.084-0.252-0.084c-0.159-0.008-0.389,0.074-0.511,0.084c-0.23,0.018-0.342-0.063-0.549-0.042
			c-0.102,0.012-0.265,0.145-0.337,0.17c-0.068,0.025-0.147,0.049-0.213,0.069c-0.045,0.011-0.159,0.074-0.212,0.1
			c-0.209,0.102-0.333,0.102-0.592,0.17l-0.15,0.04C19.629,30.366,19.66,30.145,19.761,30.089 M18.978,31.344
			c0.346-0.082,0.449,0.007,0.613,0.4c0.124,0.232,0.381,0.541,0.48,0.688c-0.399,0.046-1.033-0.499-1.209-0.795
			C18.749,31.49,18.92,31.374,18.978,31.344 M14.579,29.694c0.456-0.127,0.857-0.258,1.025-0.355
			c0.062-0.004,0.121-0.004,0.182-0.007c0.025,0.12,0.073,0.244,0.144,0.365c0.017,0.026,0.031,0.049,0.046,0.069
			C15.702,29.773,15.146,29.739,14.579,29.694 M15.527,30.491c0.233-0.141,0.457-0.292,0.669-0.447
			c0.097,0.112,0.202,0.218,0.321,0.318C16.393,30.395,16.008,30.443,15.527,30.491L15.527,30.491z"/>
		<path fill="#D7C9B1" d="M19.761,30.089c0.002-0.001,0.005-0.002,0.006-0.002C19.742,30.1,19.745,30.098,19.761,30.089
			L19.761,30.089z"/>
		<path fill="#D7C9B1" d="M16.112,8.293c-0.168-0.127-0.329-0.248-0.672-0.609c0,0-1.456-1.61-1.676-1.855
			c0.055-0.069,1.691-2.068,1.691-2.069l0.097-0.102h-0.123h-0.701l-1.838,2.273V3.658h-0.054h-0.777v4.801h0.832V6l1.918,2.136
			c0.16,0.213,0.446,0.324,0.846,0.324h0.686l-0.164-0.118C16.177,8.343,16.112,8.293,16.112,8.293L16.112,8.293z"/>
		<path fill="#D7C9B1" d="M20.048,3.516c-0.731-0.004-1.361,0.242-1.871,0.731c-0.509,0.489-0.769,1.09-0.769,1.786
			c0,0.732,0.256,1.348,0.762,1.828c0.491,0.472,1.099,0.709,1.809,0.709c0.71,0,1.327-0.247,1.831-0.735
			c0.504-0.488,0.761-1.107,0.761-1.839c0-0.67-0.237-1.251-0.705-1.727C21.38,3.774,20.767,3.521,20.048,3.516 M20.013,7.945
			c-0.5,0-0.923-0.21-1.25-0.624c-0.309-0.383-0.466-0.838-0.466-1.353c0-0.53,0.157-0.974,0.467-1.314
			c0.309-0.339,0.724-0.511,1.235-0.511c0.502,0,0.919,0.207,1.24,0.615c0.295,0.378,0.444,0.844,0.444,1.381
			c0,0.522-0.15,0.958-0.45,1.293C20.923,7.771,20.512,7.945,20.013,7.945L20.013,7.945z"/>
		<path fill="#D7C9B1" d="M31.661,6.163c0.099,0,1.543,0.001,1.543,0.001v-0.63c0,0-1.444,0.001-1.543,0.001
			c0-0.094,0-1.152,0-1.245c0.337-0.008,1.888,0,1.906,0l0.052,0V3.646l-2.796-0.002v0.054l0.002,4.761h2.991l0.102-0.677
			c0,0-2.157,0.002-2.257,0.002C31.661,7.688,31.661,6.26,31.661,6.163L31.661,6.163z"/>
		<path fill="#D7C9B1" d="M38.373,3.644h-0.771l-1.963,4.815h0.743c0,0,0.637-1.7,0.661-1.767c0.068,0,1.665,0,1.733,0
			C38.8,6.759,39.45,8.459,39.45,8.459h0.922l-1.965-4.815H38.373 M38.508,6.055c-0.129,0-1.103,0-1.233,0
			c0.047-0.124,0.541-1.371,0.624-1.581C37.979,4.686,38.461,5.933,38.508,6.055L38.508,6.055z"/>
		<path fill="#D7C9B1" d="M27.926,7.372c0,0-0.797-0.997-1-1.25c0.166-0.06,0.454-0.189,0.675-0.42
			c0.241-0.251,0.363-0.539,0.363-0.852c0-0.354-0.133-0.643-0.398-0.863c-0.275-0.227-0.656-0.342-1.134-0.342h-1.544h-0.054v4.814
			h0.858V8.385c-0.023-0.161-0.024-0.409-0.024-0.981c0,0,0-3.056,0-3.159c0.786-0.008,1.098,0.091,1.22,0.178
			c0.164,0.117,0.244,0.285,0.243,0.516c-0.002,0.532-0.392,0.849-1.19,0.97L25.85,5.921l1.687,2.16
			c0.201,0.252,0.493,0.378,0.871,0.378h0.688l-0.142-0.098C28.61,8.127,28.235,7.767,27.926,7.372L27.926,7.372z"/>
		<path fill="#D7C9B1" d="M24.902,11.592c0.048,0,0.737,0,0.737,0v-0.299c0,0-0.689,0-0.737,0c0-0.045,0-0.549,0-0.593
			c0.161-0.003,0.899,0,0.908,0h0.024v-0.307l-1.331-0.001v0.025l0.001,2.269h1.425l0.049-0.323c0,0-1.027,0.001-1.077,0.001
			C24.902,12.317,24.902,11.638,24.902,11.592L24.902,11.592z"/>
		<path fill="#D7C9B1" d="M13.943,10.394h-0.276l0.002,1.415c0,0.421-0.098,0.651-0.616,0.651h-0.062
			c-0.345,0-0.519-0.22-0.519-0.651c0-0.001,0.001-1.415,0.001-1.415h-0.399v1.415c0,0.172,0.006,0.289,0.02,0.361
			c0.024,0.128,0.078,0.24,0.161,0.33c0.149,0.163,0.364,0.247,0.637,0.247h0.257c0.272,0,0.488-0.084,0.638-0.247
			c0.081-0.089,0.135-0.202,0.159-0.331c0.014-0.071,0.02-0.188,0.02-0.36v-1.415H13.943L13.943,10.394z"/>
		<path fill="#D7C9B1" d="M17.4,10.394l-0.001,0.025c0,0-0.002,1.525-0.002,1.66c-0.085-0.107-1.328-1.685-1.328-1.685h-0.345v2.297
			h0.3c0,0,0.001-1.583,0.001-1.718c0.083,0.109,1.346,1.717,1.346,1.717l0.331,0.001v-2.297h-0.028H17.4L17.4,10.394z"/>
		<polygon fill="#D7C9B1" points="19.396,10.394 19.396,12.691 19.791,12.691 19.792,10.394 19.767,10.394 19.396,10.394 		"/>
		<polygon fill="#D7C9B1" points="33.759,10.394 33.759,10.9 33.759,12.188 33.762,12.691 34.157,12.691 34.157,12.188 34.157,10.9 
			34.157,10.419 34.157,10.394 34.132,10.394 33.759,10.394 		"/>
		<path fill="#D7C9B1" d="M22.852,10.394c0,0-0.614,1.678-0.658,1.801c-0.043-0.123-0.646-1.801-0.646-1.801h-0.452l0.857,2.299
			l0.36-0.001l0.887-2.298h-0.036H22.852L22.852,10.394z"/>
		<path fill="#D7C9B1" d="M31.818,11.527c-0.001-0.001-0.309-0.152-0.309-0.152l-0.263-0.129c-0.193-0.101-0.292-0.211-0.292-0.328
			c0-0.098,0.045-0.169,0.136-0.219c0.069-0.041,0.168-0.059,0.291-0.056c0.201,0.006,0.407,0.065,0.513,0.149l0.04,0.032v-0.408
			l-0.016-0.005c-0.162-0.05-0.336-0.077-0.518-0.077c-0.237,0-0.438,0.047-0.596,0.14c-0.191,0.109-0.286,0.271-0.286,0.479
			c0,0.213,0.106,0.39,0.317,0.526c0.001,0.001,0.113,0.057,0.113,0.057l0.458,0.224c0.193,0.102,0.291,0.22,0.291,0.353
			c0,0.1-0.051,0.181-0.158,0.244c-0.096,0.058-0.198,0.086-0.305,0.085c-0.247-0.002-0.479-0.064-0.688-0.185l-0.045-0.027
			l0.059,0.401l0.015,0.005c0.185,0.069,0.395,0.104,0.621,0.104c0.28,0,0.521-0.073,0.694-0.21
			c0.165-0.132,0.247-0.307,0.247-0.521C32.136,11.822,32.029,11.661,31.818,11.527L31.818,11.527z"/>
		<path fill="#D7C9B1" d="M35.663,10.385v0.025l-0.001,0.276c0,0,0.594,0,0.641,0.001c0,0.049,0,1.998,0,1.998h0.395
			c0,0,0.001-1.949,0.001-1.998c0.048,0,0.655,0,0.655,0v-0.303H35.663L35.663,10.385z"/>
		<path fill="#D7C9B1" d="M39.942,10.388c0,0-0.586,0.905-0.626,0.967c-0.04-0.062-0.616-0.97-0.616-0.97h-0.013h-0.444
			c0,0,0.818,1.287,0.827,1.299c0,0.015-0.002,1.001-0.002,1.001h0.397c0,0,0.001-0.985,0.001-1
			c0.009-0.013,0.861-1.297,0.861-1.297H39.942L39.942,10.388z"/>
		<path fill="#D7C9B1" d="M28.955,12.168c0,0-0.38-0.476-0.477-0.596c0.08-0.029,0.217-0.09,0.321-0.199
			c0.115-0.121,0.173-0.257,0.173-0.406c0-0.168-0.063-0.307-0.189-0.412c-0.132-0.108-0.313-0.162-0.54-0.162h-0.738h-0.023v2.293
			h0.408V12.65c-0.01-0.077-0.01-0.188-0.01-0.467c0,0,0-1.456,0-1.505c0.373-0.003,0.521,0.043,0.58,0.085
			c0.079,0.056,0.118,0.136,0.116,0.246c-0.001,0.253-0.187,0.405-0.567,0.462l-0.042,0.006l0.803,1.029
			c0.095,0.119,0.233,0.181,0.413,0.181h0.33l-0.069-0.048C29.279,12.528,29.101,12.355,28.955,12.168L28.955,12.168z"/>
	</g>
	<g>
		<path fill="#7C0019" d="M70.15,23.211l-0.666-0.472l-0.25-0.192c-0.671-0.508-1.305-0.99-2.676-2.428c0,0-5.8-6.416-6.681-7.392
			c0.223-0.274,6.742-8.244,6.744-8.245l0.368-0.407H66.51h-2.799l-1.882,2.349l-5.439,6.714l-0.001-4.871l0.005-4.193H56.18h-3.102
			l-0.007,14.914l0.009,4.222h3.313l-0.004-9.798l7.648,8.504c0.631,0.853,1.768,1.293,3.369,1.293H70.15z"/>
		<path fill="#7C0019" d="M69.936,13.542c0,2.917,1.02,5.368,3.034,7.286c1.954,1.875,4.381,2.826,7.211,2.826
			c2.829,0,5.282-0.985,7.292-2.927c2.013-1.944,3.034-4.408,3.034-7.327c0-2.672-0.946-4.988-2.811-6.883
			c-1.936-1.974-4.374-2.983-7.243-3.003c-2.918-0.019-5.428,0.96-7.458,2.912C70.964,8.379,69.936,10.772,69.936,13.542z
			 M80.263,6.011c1.997,0,3.657,0.824,4.931,2.451c1.178,1.512,1.774,3.365,1.774,5.506c0,2.082-0.603,3.814-1.792,5.154
			c-1.236,1.351-2.871,2.035-4.859,2.035c-2,0-3.679-0.833-4.989-2.481c-1.232-1.53-1.856-3.344-1.856-5.39
			c0-2.118,0.626-3.882,1.86-5.238C76.561,6.695,78.219,6.011,80.263,6.011z"/>
		<path fill="#7C0019" d="M96.848,33.792c0.213,0,3.308-0.001,3.308-0.001v-1.342c0,0-3.095,0-3.308,0c0-0.203,0-2.47,0-2.669
			c0.725-0.015,4.048-0.001,4.084-0.001l0.115,0.001v-1.384l-5.995-0.003v0.115l0.012,10.205h6.405l0.219-1.439
			c0,0-4.623-0.007-4.84-0.007C96.848,37.06,96.848,34.001,96.848,33.792z"/>
		<path fill="#7C0019" d="M126.381,20.499c0,0-8.584,0.006-8.99,0.007c0-0.389,0-6.071,0-6.458c0.396,0,6.145-0.011,6.145-0.011
			v-2.485c0,0-5.747,0.002-6.145,0.002c0-0.375,0-4.588,0-4.957c1.347-0.03,7.521,0,7.587,0l0.213,0V4.005l-0.213,0.001
			l-10.922,0.016l0.022,19.169h11.897L126.381,20.499z"/>
		<path fill="#7C0019" d="M134.376,16.169c0.278,0,6.632,0,6.908,0c0.099,0.264,2.687,7.042,2.687,7.042h3.673l-7.827-19.188h-0.145
			h-3.064l-7.822,19.188h2.958C131.743,23.211,134.277,16.435,134.376,16.169z M135.301,13.633c0.195-0.494,2.154-5.466,2.482-6.303
			c0.325,0.839,2.245,5.811,2.436,6.303C139.699,13.633,135.824,13.633,135.301,13.633z"/>
		<path fill="#7C0019" d="M98.181,22.913c-0.085-0.64-0.092-1.629-0.092-3.904c0,0,0-12.187,0-12.595
			c3.133-0.031,4.376,0.365,4.861,0.708c0.655,0.463,0.975,1.136,0.969,2.056c-0.011,2.122-1.562,3.385-4.744,3.863l-0.361,0.055
			l6.722,8.607c0.8,1.001,1.968,1.507,3.471,1.507h2.747l-0.571-0.389c-1.366-0.93-2.856-2.367-4.091-3.943
			c-0.001-0.001-3.174-3.969-3.98-4.978c0.665-0.249,1.823-0.777,2.685-1.68c0.961-1.006,1.449-2.148,1.449-3.396
			c0-1.407-0.534-2.565-1.585-3.44c-1.101-0.904-2.621-1.361-4.521-1.361h-6.16h-0.213v14.982v4.206h3.416V22.913z"/>
		<path fill="#7C0019" d="M111.144,36.404c0,0-1.708-2.137-2.141-2.678c0.354-0.13,0.975-0.405,1.445-0.9
			c0.517-0.539,0.777-1.153,0.777-1.825c0-0.756-0.285-1.38-0.85-1.849c-0.591-0.485-1.408-0.732-2.43-0.732h-3.312h-0.113v10.313
			h1.834v-0.161c-0.043-0.343-0.049-0.873-0.049-2.095c0-0.001,0-6.551,0-6.771c1.684-0.017,2.352,0.196,2.613,0.381
			c0.353,0.248,0.523,0.61,0.521,1.104c-0.006,1.14-0.841,1.82-2.551,2.076l-0.192,0.027l3.611,4.628
			c0.43,0.537,1.056,0.81,1.865,0.81h1.475l-0.306-0.209C112.608,38.022,111.807,37.251,111.144,36.404z"/>
		<path fill="#7C0019" d="M60.262,28.403l0.012,6.36c0,1.898-0.444,2.925-2.775,2.925h-0.272c-1.548,0-2.335-0.984-2.335-2.926
			v-6.359h-1.783l-0.006,6.364c0,0.774,0.031,1.304,0.094,1.621c0.106,0.582,0.348,1.081,0.719,1.482
			c0.676,0.738,1.641,1.112,2.868,1.112h1.157c1.228,0,2.192-0.374,2.869-1.112c0.37-0.4,0.613-0.9,0.719-1.484
			c0.063-0.315,0.094-0.846,0.094-1.619l0.004-6.25v-0.114h-0.114H60.262z"/>
		<path fill="#7C0019" d="M73.153,28.403l-0.009,0.114c0,0-0.011,6.862-0.012,7.465c-0.381-0.483-5.966-7.579-5.966-7.579h-1.553
			v10.335h1.354c0,0-0.001-7.118-0.001-7.728c0.382,0.489,6.055,7.722,6.055,7.722l1.485,0.007l0.013-10.336h-0.124H73.153z"/>
		<polygon fill="#7C0019" points="78.58,28.403 78.593,38.738 80.371,38.738 80.376,28.403 80.261,28.403 		"/>
		<polygon fill="#7C0019" points="124.82,28.403 124.835,38.738 126.612,38.738 126.618,28.403 126.503,28.403 		"/>
		<path fill="#7C0019" d="M90.993,28.403c0,0-2.757,7.549-2.96,8.101c-0.198-0.554-2.904-8.101-2.904-8.101h-2.032l3.854,10.344
			l1.616-0.003l3.992-10.341h-0.167H90.993z"/>
		<path fill="#7C0019" d="M120.191,33.499c-0.013-0.005-1.159-0.568-1.159-0.568l-1.415-0.695c-0.868-0.455-1.31-0.952-1.31-1.478
			c0-0.438,0.198-0.763,0.606-0.988c0.313-0.178,0.755-0.261,1.312-0.245c0.897,0.023,1.825,0.289,2.309,0.665l0.184,0.143v-1.831
			l-0.079-0.024c-0.727-0.229-1.508-0.344-2.325-0.344c-1.07,0-1.976,0.212-2.688,0.629c-0.852,0.49-1.286,1.215-1.286,2.154
			c0,0.956,0.48,1.754,1.428,2.365c0.011,0.008,1.096,0.539,1.096,0.539l1.477,0.726c0.868,0.457,1.31,0.989,1.31,1.585
			c0,0.452-0.234,0.812-0.714,1.1c-0.428,0.254-0.891,0.383-1.374,0.38c-1.108-0.007-2.151-0.285-3.095-0.832l-0.205-0.118
			l0.268,1.806l0.064,0.022c0.839,0.311,1.778,0.468,2.79,0.468c1.271,0,2.354-0.327,3.13-0.946
			c0.732-0.595,1.104-1.383,1.104-2.344C121.617,34.83,121.137,34.101,120.191,33.499z"/>
		<path fill="#7C0019" d="M129.504,28.368l0.006,1.358c0,0,2.66-0.004,2.872-0.004c0,0.223-0.003,8.988-0.003,8.988h1.796
			c0,0-0.001-8.766-0.001-8.988c0.211,0,2.94,0.003,2.94,0.003l0.004-1.357h-0.113H129.504z"/>
		<path fill="#7C0019" d="M142.997,32.727c-0.179-0.28-2.767-4.347-2.767-4.347l-2.057-0.002l0.113,0.176
			c0,0,3.567,5.598,3.603,5.654c0,0.065-0.007,4.503-0.007,4.503h1.794c0,0,0.004-4.435,0.004-4.501
			c0.038-0.059,3.871-5.832,3.871-5.832h-1.733C145.818,28.378,143.177,32.448,142.997,32.727z"/>
	</g>
</g>
</svg>
